<?xml version="1.0" standalone="no"?>
<!DOCTYPE svg PUBLIC "-//W3C//DTD SVG 20010904//EN"
 "http://www.w3.org/TR/2001/REC-SVG-20010904/DTD/svg10.dtd">
<svg version="1.0" xmlns="http://www.w3.org/2000/svg"
 width="177.000000pt" height="291.000000pt" viewBox="0 0 177.000000 291.000000"
 preserveAspectRatio="xMidYMid meet"
 >
<!-- <rect width="100%" height="100%" fill="blue"/> -->
<g transform="translate(0.000000,291.000000) scale(0.100000,-0.100000)"
fill="#000000" stroke="none">
<path d="M1160 2899 c-13 -6 -32 -17 -41 -25 -15 -13 -17 -13 -22 6 -3 11 -11
20 -17 20 -21 0 -77 -67 -107 -127 -23 -48 -28 -71 -28 -135 0 -42 2 -78 5
-80 3 -3 26 -3 51 0 l47 4 7 55 c6 51 8 54 24 39 29 -26 78 -20 98 12 9 15 18
29 19 31 2 1 18 -13 37 -32 24 -23 32 -38 25 -45 -6 -6 3 -11 27 -14 31 -4 36
-2 32 14 -3 10 -1 18 4 18 5 0 9 -18 9 -39 0 -71 17 -53 19 19 1 38 6 81 11
95 15 40 12 54 -14 66 -21 10 -24 17 -19 45 5 30 2 35 -22 44 -15 6 -36 8 -46
5 -13 -4 -19 -1 -19 8 0 26 -37 33 -80 16z m-12 -176 c-10 -2 -26 -2 -35 0
-10 3 -2 5 17 5 19 0 27 -2 18 -5z m160 0 c-10 -2 -26 -2 -35 0 -10 3 -2 5 17
5 19 0 27 -2 18 -5z"/>
<path d="M1453 2628 c-14 -17 -38 -66 -27 -53 47 53 56 65 47 65 -6 0 -15 -6
-20 -12z"/>
<path d="M1108 2619 c-32 -18 -19 -27 22 -17 22 6 40 14 40 19 0 12 -41 11
-62 -2z"/>
<path d="M1469 2578 l-22 -33 31 29 c34 32 37 36 23 36 -5 0 -20 -15 -32 -32z"/>
<path d="M1246 2565 c3 -22 7 -50 8 -62 0 -12 4 -19 9 -14 4 4 1 32 -8 62 -12
41 -14 45 -9 14z"/>
<path d="M1130 2545 c0 -8 5 -15 10 -15 6 0 10 7 10 15 0 8 -4 15 -10 15 -5 0
-10 -7 -10 -15z"/>
<path d="M1275 2551 c-6 -11 9 -23 19 -14 9 9 7 23 -3 23 -6 0 -12 -4 -16 -9z"/>
<path d="M1506 2536 c3 -8 13 -12 27 -8 20 5 20 6 1 13 -29 11 -34 10 -28 -5z"/>
<path d="M65 228 c-9 -50 11 -71 65 -66 45 4 55 35 13 40 -18 2 -35 14 -49 36
l-22 32 -7 -42z"/>
<path d="M996 238 c-11 -6 -47 -8 -86 -5 l-67 6 -12 -42 c-7 -23 -15 -50 -17
-59 -5 -17 6 -18 130 -18 87 0 136 4 136 10 0 14 -47 107 -58 113 -4 3 -16 1
-26 -5z"/>
<path d="M1156 190 c-8 -25 -11 -48 -7 -51 3 -4 84 -9 179 -12 l173 -5 -17 26
c-42 68 -82 83 -212 85 l-103 2 -13 -45z"/>
<path d="M400 190 c0 -32 94 -41 110 -10 10 19 8 20 -50 20 -33 0 -60 -4 -60
-10z"/>
</g>
</svg>
